<?xml version="1.0" encoding="UTF-8"?>
<svg version="1.1" xmlns="http://www.w3.org/2000/svg" width="200" height="200">
<path d="M0 0 C1.80130119 0.00022659 1.80130119 0.00022659 3.63899231 0.00045776 C5.56892281 0.01594162 5.56892281 0.01594162 7.5378418 0.03173828 C8.87590829 0.03547166 10.21397752 0.0383171 11.55204773 0.04031372 C15.06197753 0.04792462 18.57174 0.06755096 22.081604 0.08972168 C25.66790504 0.11023514 29.25423329 0.11932716 32.84057617 0.12939453 C39.8686394 0.15079949 46.89659192 0.18490447 53.92456055 0.22705078 C50.16579185 4.71106531 46.29652465 9.00499695 42.15112305 13.13330078 C41.623685 13.66169556 41.09624695 14.19009033 40.55282593 14.73449707 C39.44651921 15.84147832 38.33897268 16.94722182 37.23022461 18.05175781 C35.55687325 19.71976145 33.88891938 21.39302752 32.22143555 23.06689453 C27.24683491 28.04422801 22.238093 32.91310184 16.88208008 37.48339844 C11.82536144 41.98764944 7.19062363 46.97012283 2.46362305 51.81494141 C1.64893555 52.64058594 0.83424805 53.46623047 -0.00512695 54.31689453 C-0.73973145 55.0683374 -1.47433594 55.81978027 -2.23120117 56.59399414 C-4.07543945 58.22705078 -4.07543945 58.22705078 -6.07543945 58.22705078 C-6.40543945 59.21705078 -6.73543945 60.20705078 -7.07543945 61.22705078 C-8.4309082 62.55908203 -8.4309082 62.55908203 -10.26293945 64.03955078 C-14.42867907 67.5597884 -18.24769925 71.34942779 -22.07543945 75.22705078 C-26.42360061 79.62252473 -30.78694333 83.91365825 -35.5246582 87.89501953 C-37.13291247 89.22956357 -37.13291247 89.22956357 -38.6574707 90.90283203 C-40.07543945 92.22705078 -40.07543945 92.22705078 -42.07543945 92.22705078 C-39.43449143 62.50653129 -31.33092535 32.91737626 -14.07543945 8.22705078 C-32.50343554 26.74217687 -41.056662 51.90927251 -49.07543945 76.22705078 C-51.72557511 73.91590649 -52.05131076 73.3835426 -52.62231445 69.68017578 C-52.70452701 68.27991035 -52.77172666 66.87869878 -52.82543945 65.47705078 C-52.88924805 64.44064453 -52.88924805 64.44064453 -52.9543457 63.38330078 C-53.18374304 58.86332357 -52.83940253 54.70528174 -52.07543945 50.22705078 C-51.78926758 48.29539062 -51.78926758 48.29539062 -51.49731445 46.32470703 C-50.29321996 38.83347985 -49.20058632 32.10095966 -44.07543945 26.22705078 C-43.47086914 25.52708984 -42.86629883 24.82712891 -42.2434082 24.10595703 C-33.60118697 14.85445118 -22.70537943 7.22022716 -11.07543945 2.22705078 C-10.33070877 1.88239777 -9.58597809 1.53774475 -8.81867981 1.18264771 C-5.70758287 0.09890939 -3.2902683 -0.01385376 0 0 Z " fill="#000000" transform="translate(141.075439453125,7.77294921875)"/>
<path d="M0 0 C5.05362021 -0.12371396 10.10635702 -0.21439046 15.16113281 -0.2746582 C16.88003901 -0.29978367 18.59883856 -0.33389047 20.31738281 -0.37719727 C22.78998114 -0.43794029 25.26116606 -0.46622762 27.734375 -0.48828125 C28.50118591 -0.51408768 29.26799683 -0.5398941 30.05804443 -0.56648254 C33.69516042 -0.56838911 35.53730559 -0.4386095 38.22314453 2.10742188 C38.80950684 3.06197266 39.39586914 4.01652344 40 5 C40.74523926 6.05421143 41.49047852 7.10842285 42.25830078 8.19458008 C44.43450523 11.37008821 46.58840256 14.56076473 48.73681641 17.75512695 C49.66090806 19.12468735 50.58994216 20.49092608 51.52392578 21.85375977 C52.88416777 23.83902313 54.22866008 25.83417221 55.5703125 27.83203125 C55.9849173 28.43126907 56.39952209 29.0305069 56.82669067 29.64790344 C63.14180091 39.16703361 63.60710504 50.96023032 62 62 C59.01859892 76.18488844 54.64614937 90.28146428 50 104 C46.98248508 101.41202658 45.58927982 98.46758805 43.8828125 94.91015625 C43.58984283 94.30333511 43.29687317 93.69651398 42.99502563 93.07130432 C42.03186141 91.0714129 41.07821083 89.0671524 40.125 87.0625 C39.44726196 85.64812047 38.76919734 84.23389738 38.09082031 82.81982422 C32.5664325 71.28077633 27.1562012 59.68895834 21.80253601 48.0697937 C19.20247993 42.43002697 16.58399286 36.7988889 13.96484375 31.16796875 C12.64382613 28.32574507 11.32302561 25.48342061 10.00231934 22.64105225 C9.12746865 20.75899835 8.25206384 18.87720193 7.37609863 16.9956665 C6.14868889 14.35861228 4.92367904 11.720456 3.69921875 9.08203125 C3.32490219 8.27928268 2.95058563 7.47653412 2.56492615 6.64945984 C0 1.11397342 0 1.11397342 0 0 Z " fill="#000000" transform="translate(5,9)"/>
<path d="M0 0 C6.03105125 4.48462785 10.34566039 10.14528994 15 16 C19.77193697 21.88623954 24.59481826 27.72459891 29.5 33.5 C35.14840972 40.15048379 40.66823149 46.90120564 46.171875 53.671875 C50.23406081 58.65597532 54.33781943 63.59941456 58.5 68.5 C62.65270433 73.38942804 66.75037513 78.31880681 70.796875 83.296875 C72.33971494 85.18986301 73.89267774 87.07462479 75.453125 88.953125 C76.25234375 89.91734375 77.0515625 90.8815625 77.875 91.875 C78.59429687 92.73867187 79.31359375 93.60234375 80.0546875 94.4921875 C81.9268549 96.90570451 83.453381 99.37080249 85 102 C46.88940766 104.76954902 46.88940766 104.76954902 38.08984375 99 C34.45708714 95.83100817 31.55790746 92.15378314 28.73828125 88.2578125 C25.75944386 84.3886709 22.11474886 81.26171434 18.5 78 C17.09592887 76.68290961 15.69488448 75.3625852 14.296875 74.0390625 C11.31604625 71.23268778 8.32501094 68.43765541 5.328125 65.6484375 C4.56177734 64.93300781 3.79542969 64.21757812 3.00585938 63.48046875 C1.54630154 62.11821477 0.08422379 60.75865356 -1.38085938 59.40234375 C-12.81553718 48.71219793 -12.81553718 48.71219793 -13.14526367 42.07666016 C-13.18568115 35.77935666 -13.18568115 35.77935666 -13.18530273 32.65820312 C-13.18748475 30.63910706 -13.20564123 28.62056164 -13.22460938 26.6015625 C-13.22654297 25.3228125 -13.22847656 24.0440625 -13.23046875 22.7265625 C-13.23457764 21.55689941 -13.23868652 20.38723633 -13.24291992 19.18212891 C-12.75338841 12.76951207 -9.89741329 9.48608827 -5.375 5.1875 C-4.859375 4.68541016 -4.34375 4.18332031 -3.8125 3.66601562 C-2.54840846 2.43703773 -1.27511194 1.21753999 0 0 Z " fill="#000000" transform="translate(111,91)"/>
<path d="M0 0 C-0.57848411 5.17161377 -1.39579365 10.10058928 -2.64233398 15.1628418 C-2.80507812 15.82897491 -2.96782227 16.49510803 -3.13549805 17.181427 C-3.66784996 19.35516207 -4.20675501 21.52720763 -4.74609375 23.69921875 C-5.12131281 25.22273104 -5.49623151 26.74631733 -5.87086487 28.26997375 C-6.65391532 31.45032306 -7.44014887 34.62986294 -8.22875977 37.80883789 C-9.23748989 41.87597577 -10.23887401 45.94487931 -11.23797512 50.0143919 C-12.00995324 53.15579133 -12.78547165 56.2963083 -13.56208992 59.43656349 C-13.93267727 60.93657364 -14.30225055 62.43683471 -14.67077446 63.93735313 C-15.18640091 66.03424453 -15.70670724 68.12992058 -16.22827148 70.2253418 C-16.52281723 71.41588669 -16.81736298 72.60643158 -17.12083435 73.83305359 C-18 77 -18 77 -20 82 C-41.45 82 -62.9 82 -85 82 C-81.25805678 77.63439957 -77.66795479 73.53109862 -73.625 69.5 C-72.75101563 68.6234375 -71.87703125 67.746875 -70.9765625 66.84375 C-68.86497722 64.78261215 -66.67474293 62.85181588 -64.4296875 60.9375 C-58.48187503 55.77869741 -53.02937348 50.09789921 -47.5 44.5 C-35.39759067 32.24760507 -35.39759067 32.24760507 -31.0234375 28.52734375 C-27.43853958 25.47392236 -24.13064214 22.19190946 -20.8203125 18.84765625 C-20.00436615 18.02344681 -20.00436615 18.02344681 -19.17193604 17.18258667 C-16.90822812 14.89110651 -14.64833501 12.59593885 -12.39257812 10.29663086 C-10.7269587 8.60099814 -9.05532413 6.91148699 -7.3828125 5.22265625 C-6.87138702 4.69777115 -6.35996155 4.17288605 -5.83303833 3.63209534 C-2.22662057 0 -2.22662057 0 0 0 Z " fill="#000000" transform="translate(90,111)"/>
</svg>
